<mxfile host="app.diagrams.net" agent="Mozilla/5.0 (Windows NT 10.0; Win64; x64) AppleWebKit/537.36 (KHTML, like Gecko) Chrome/131.0.0.0 Safari/537.36" version="26.0.5">
  <diagram name="Pagina-1" id="k3vrXkIA9bV64kqaDmcU">
    <mxGraphModel dx="779" dy="420" grid="1" gridSize="10" guides="1" tooltips="1" connect="1" arrows="1" fold="1" page="1" pageScale="1" pageWidth="827" pageHeight="1169" math="0" shadow="0">
      <root>
        <mxCell id="0" />
        <mxCell id="1" parent="0" />
        <mxCell id="FBNQT48soNXiwn7uXMfq-3" style="edgeStyle=orthogonalEdgeStyle;rounded=0;orthogonalLoop=1;jettySize=auto;html=1;" parent="1" source="FBNQT48soNXiwn7uXMfq-1" target="FBNQT48soNXiwn7uXMfq-4" edge="1">
          <mxGeometry relative="1" as="geometry">
            <mxPoint x="380" y="260" as="targetPoint" />
          </mxGeometry>
        </mxCell>
        <mxCell id="FBNQT48soNXiwn7uXMfq-1" value="start" style="rounded=1;whiteSpace=wrap;html=1;fillColor=#e1d5e7;strokeColor=#9673a6;" parent="1" vertex="1">
          <mxGeometry x="320" y="180" width="120" height="20" as="geometry" />
        </mxCell>
        <mxCell id="FBNQT48soNXiwn7uXMfq-5" style="edgeStyle=orthogonalEdgeStyle;rounded=0;orthogonalLoop=1;jettySize=auto;html=1;" parent="1" source="FBNQT48soNXiwn7uXMfq-4" target="FBNQT48soNXiwn7uXMfq-24" edge="1">
          <mxGeometry relative="1" as="geometry">
            <mxPoint x="380" y="320" as="targetPoint" />
          </mxGeometry>
        </mxCell>
        <mxCell id="FBNQT48soNXiwn7uXMfq-4" value="namen" style="shape=parallelogram;perimeter=parallelogramPerimeter;whiteSpace=wrap;html=1;fixedSize=1;fillColor=#fff2cc;strokeColor=#d6b656;" parent="1" vertex="1">
          <mxGeometry x="330" y="250" width="100" height="40" as="geometry" />
        </mxCell>
        <mxCell id="FBNQT48soNXiwn7uXMfq-8" style="edgeStyle=orthogonalEdgeStyle;rounded=0;orthogonalLoop=1;jettySize=auto;html=1;entryX=0.5;entryY=1;entryDx=0;entryDy=0;exitX=1;exitY=0.5;exitDx=0;exitDy=0;" parent="1" edge="1">
          <mxGeometry relative="1" as="geometry">
            <mxPoint x="414" y="625" as="sourcePoint" />
            <mxPoint x="585.5" y="215" as="targetPoint" />
            <Array as="points">
              <mxPoint x="414.5" y="620" />
              <mxPoint x="585.5" y="620" />
            </Array>
          </mxGeometry>
        </mxCell>
        <mxCell id="FBNQT48soNXiwn7uXMfq-22" value="False" style="edgeLabel;html=1;align=center;verticalAlign=middle;resizable=0;points=[];" parent="FBNQT48soNXiwn7uXMfq-8" vertex="1" connectable="0">
          <mxGeometry x="-0.5098" y="3" relative="1" as="geometry">
            <mxPoint x="-57" y="3" as="offset" />
          </mxGeometry>
        </mxCell>
        <mxCell id="FBNQT48soNXiwn7uXMfq-33" style="edgeStyle=orthogonalEdgeStyle;rounded=0;orthogonalLoop=1;jettySize=auto;html=1;" parent="1" source="FBNQT48soNXiwn7uXMfq-24" target="FBNQT48soNXiwn7uXMfq-28" edge="1">
          <mxGeometry relative="1" as="geometry" />
        </mxCell>
        <mxCell id="FBNQT48soNXiwn7uXMfq-35" value="True" style="edgeLabel;html=1;align=center;verticalAlign=middle;resizable=0;points=[];" parent="FBNQT48soNXiwn7uXMfq-33" vertex="1" connectable="0">
          <mxGeometry x="-0.1174" y="3" relative="1" as="geometry">
            <mxPoint as="offset" />
          </mxGeometry>
        </mxCell>
        <mxCell id="FBNQT48soNXiwn7uXMfq-36" style="edgeStyle=orthogonalEdgeStyle;rounded=0;orthogonalLoop=1;jettySize=auto;html=1;entryX=0.5;entryY=0;entryDx=0;entryDy=0;" parent="1" source="FBNQT48soNXiwn7uXMfq-24" target="r_BC0qLnN4V1Snk0VYc_-1" edge="1">
          <mxGeometry relative="1" as="geometry">
            <mxPoint x="382.25" y="460" as="targetPoint" />
          </mxGeometry>
        </mxCell>
        <mxCell id="FBNQT48soNXiwn7uXMfq-37" value="False" style="edgeLabel;html=1;align=center;verticalAlign=middle;resizable=0;points=[];" parent="FBNQT48soNXiwn7uXMfq-36" vertex="1" connectable="0">
          <mxGeometry x="-0.0205" y="1" relative="1" as="geometry">
            <mxPoint as="offset" />
          </mxGeometry>
        </mxCell>
        <mxCell id="FBNQT48soNXiwn7uXMfq-24" value="naam is&lt;div&gt;&amp;nbsp;int&lt;/div&gt;" style="rhombus;whiteSpace=wrap;html=1;fillColor=#f5f5f5;fontColor=#333333;strokeColor=#666666;" parent="1" vertex="1">
          <mxGeometry x="348.75" y="320" width="62.5" height="70" as="geometry" />
        </mxCell>
        <mxCell id="FBNQT48soNXiwn7uXMfq-34" style="edgeStyle=orthogonalEdgeStyle;rounded=0;orthogonalLoop=1;jettySize=auto;html=1;entryX=1;entryY=0.5;entryDx=0;entryDy=0;" parent="1" source="FBNQT48soNXiwn7uXMfq-28" target="FBNQT48soNXiwn7uXMfq-4" edge="1">
          <mxGeometry relative="1" as="geometry">
            <Array as="points">
              <mxPoint x="500" y="270" />
            </Array>
          </mxGeometry>
        </mxCell>
        <mxCell id="FBNQT48soNXiwn7uXMfq-28" value="fout melding" style="rounded=0;whiteSpace=wrap;html=1;fillColor=#dae8fc;strokeColor=#6c8ebf;" parent="1" vertex="1">
          <mxGeometry x="460" y="340" width="70" height="30" as="geometry" />
        </mxCell>
        <mxCell id="NdRPjQpu_pQKMl-yt1kw-5" style="edgeStyle=orthogonalEdgeStyle;rounded=0;orthogonalLoop=1;jettySize=auto;html=1;exitX=1;exitY=0.5;exitDx=0;exitDy=0;entryX=0;entryY=0.5;entryDx=0;entryDy=0;" edge="1" parent="1" source="FBNQT48soNXiwn7uXMfq-29" target="r_BC0qLnN4V1Snk0VYc_-3">
          <mxGeometry relative="1" as="geometry">
            <mxPoint x="620" y="190" as="targetPoint" />
          </mxGeometry>
        </mxCell>
        <mxCell id="FBNQT48soNXiwn7uXMfq-29" value="lijst1" style="ellipse;whiteSpace=wrap;html=1;aspect=fixed;fillColor=#d5e8d4;strokeColor=#82b366;" parent="1" vertex="1">
          <mxGeometry x="560" y="165" width="50" height="50" as="geometry" />
        </mxCell>
        <mxCell id="Gl5G8OVVk4Xc4y8MYBrU-4" style="edgeStyle=orthogonalEdgeStyle;rounded=0;orthogonalLoop=1;jettySize=auto;html=1;entryX=1;entryY=0.5;entryDx=0;entryDy=0;" parent="1" source="FBNQT48soNXiwn7uXMfq-43" target="FBNQT48soNXiwn7uXMfq-56" edge="1">
          <mxGeometry relative="1" as="geometry">
            <Array as="points">
              <mxPoint x="656" y="873" />
            </Array>
          </mxGeometry>
        </mxCell>
        <mxCell id="FBNQT48soNXiwn7uXMfq-43" value="random&lt;div&gt;shuffel&lt;/div&gt;" style="rounded=0;whiteSpace=wrap;html=1;fillColor=#dae8fc;strokeColor=#6c8ebf;" parent="1" vertex="1">
          <mxGeometry x="605.75" y="650" width="91" height="30" as="geometry" />
        </mxCell>
        <mxCell id="Gl5G8OVVk4Xc4y8MYBrU-2" style="edgeStyle=orthogonalEdgeStyle;rounded=0;orthogonalLoop=1;jettySize=auto;html=1;entryX=0;entryY=0.5;entryDx=0;entryDy=0;" parent="1" source="FBNQT48soNXiwn7uXMfq-54" target="FBNQT48soNXiwn7uXMfq-56" edge="1">
          <mxGeometry relative="1" as="geometry">
            <Array as="points">
              <mxPoint x="289.95" y="967.79" />
              <mxPoint x="289.95" y="872.79" />
            </Array>
          </mxGeometry>
        </mxCell>
        <mxCell id="Gl5G8OVVk4Xc4y8MYBrU-3" value="True" style="edgeLabel;html=1;align=center;verticalAlign=middle;resizable=0;points=[];" parent="Gl5G8OVVk4Xc4y8MYBrU-2" vertex="1" connectable="0">
          <mxGeometry x="-0.7804" y="5" relative="1" as="geometry">
            <mxPoint as="offset" />
          </mxGeometry>
        </mxCell>
        <mxCell id="NdRPjQpu_pQKMl-yt1kw-19" style="edgeStyle=orthogonalEdgeStyle;rounded=0;orthogonalLoop=1;jettySize=auto;html=1;entryX=0.5;entryY=0;entryDx=0;entryDy=0;" edge="1" parent="1" source="FBNQT48soNXiwn7uXMfq-54" target="NdRPjQpu_pQKMl-yt1kw-38">
          <mxGeometry relative="1" as="geometry" />
        </mxCell>
        <mxCell id="NdRPjQpu_pQKMl-yt1kw-20" value="False" style="edgeLabel;html=1;align=center;verticalAlign=middle;resizable=0;points=[];" vertex="1" connectable="0" parent="NdRPjQpu_pQKMl-yt1kw-19">
          <mxGeometry x="-0.1465" y="1" relative="1" as="geometry">
            <mxPoint as="offset" />
          </mxGeometry>
        </mxCell>
        <mxCell id="FBNQT48soNXiwn7uXMfq-54" value="naam= trek" style="rhombus;whiteSpace=wrap;html=1;fillColor=#f5f5f5;fontColor=#333333;strokeColor=#666666;" parent="1" vertex="1">
          <mxGeometry x="351" y="932.79" width="62.5" height="70" as="geometry" />
        </mxCell>
        <mxCell id="Gl5G8OVVk4Xc4y8MYBrU-1" style="edgeStyle=orthogonalEdgeStyle;rounded=0;orthogonalLoop=1;jettySize=auto;html=1;" parent="1" source="FBNQT48soNXiwn7uXMfq-56" target="FBNQT48soNXiwn7uXMfq-54" edge="1">
          <mxGeometry relative="1" as="geometry" />
        </mxCell>
        <mxCell id="FBNQT48soNXiwn7uXMfq-56" value="trek" style="shape=parallelogram;perimeter=parallelogramPerimeter;whiteSpace=wrap;html=1;fixedSize=1;fillColor=#fff2cc;strokeColor=#d6b656;" parent="1" vertex="1">
          <mxGeometry x="332.25" y="852.79" width="100" height="40" as="geometry" />
        </mxCell>
        <mxCell id="Gl5G8OVVk4Xc4y8MYBrU-13" style="edgeStyle=orthogonalEdgeStyle;rounded=0;orthogonalLoop=1;jettySize=auto;html=1;entryX=0.5;entryY=0;entryDx=0;entryDy=0;" parent="1" source="Gl5G8OVVk4Xc4y8MYBrU-5" target="Gl5G8OVVk4Xc4y8MYBrU-16" edge="1">
          <mxGeometry relative="1" as="geometry">
            <mxPoint x="379.9565217391306" y="1132.8386956521736" as="targetPoint" />
          </mxGeometry>
        </mxCell>
        <mxCell id="Gl5G8OVVk4Xc4y8MYBrU-5" value="print&amp;nbsp;&lt;span style=&quot;background-color: transparent; color: light-dark(rgb(0, 0, 0), rgb(255, 255, 255));&quot;&gt;lootje&lt;/span&gt;&lt;div&gt;&lt;span style=&quot;background-color: transparent; color: light-dark(rgb(0, 0, 0), rgb(255, 255, 255));&quot;&gt;+ naam&lt;/span&gt;&lt;/div&gt;" style="rounded=0;whiteSpace=wrap;html=1;fillColor=#dae8fc;strokeColor=#6c8ebf;" parent="1" vertex="1">
          <mxGeometry x="345" y="1139" width="70" height="30" as="geometry" />
        </mxCell>
        <mxCell id="Gl5G8OVVk4Xc4y8MYBrU-16" value="stop" style="rounded=1;whiteSpace=wrap;html=1;fillColor=#e1d5e7;strokeColor=#9673a6;" parent="1" vertex="1">
          <mxGeometry x="320" y="1272.79" width="120" height="20" as="geometry" />
        </mxCell>
        <mxCell id="NdRPjQpu_pQKMl-yt1kw-9" style="edgeStyle=orthogonalEdgeStyle;rounded=0;orthogonalLoop=1;jettySize=auto;html=1;exitX=0;exitY=0.5;exitDx=0;exitDy=0;" edge="1" parent="1" source="r_BC0qLnN4V1Snk0VYc_-1" target="FBNQT48soNXiwn7uXMfq-4">
          <mxGeometry relative="1" as="geometry">
            <mxPoint x="230" y="260" as="targetPoint" />
            <mxPoint x="350" y="620" as="sourcePoint" />
            <Array as="points">
              <mxPoint x="231" y="625" />
              <mxPoint x="231" y="270" />
            </Array>
          </mxGeometry>
        </mxCell>
        <mxCell id="NdRPjQpu_pQKMl-yt1kw-10" value="True" style="edgeLabel;html=1;align=center;verticalAlign=middle;resizable=0;points=[];" vertex="1" connectable="0" parent="NdRPjQpu_pQKMl-yt1kw-9">
          <mxGeometry x="-0.9038" y="3" relative="1" as="geometry">
            <mxPoint as="offset" />
          </mxGeometry>
        </mxCell>
        <mxCell id="r_BC0qLnN4V1Snk0VYc_-1" value="naam in lijst" style="rhombus;whiteSpace=wrap;html=1;fillColor=#f5f5f5;fontColor=#333333;strokeColor=#666666;" parent="1" vertex="1">
          <mxGeometry x="351" y="590" width="62.5" height="70" as="geometry" />
        </mxCell>
        <mxCell id="NdRPjQpu_pQKMl-yt1kw-7" style="edgeStyle=orthogonalEdgeStyle;rounded=0;orthogonalLoop=1;jettySize=auto;html=1;entryX=0.5;entryY=0;entryDx=0;entryDy=0;" edge="1" parent="1" source="r_BC0qLnN4V1Snk0VYc_-3" target="NdRPjQpu_pQKMl-yt1kw-27">
          <mxGeometry relative="1" as="geometry">
            <mxPoint x="650" y="370" as="targetPoint" />
            <Array as="points">
              <mxPoint x="646" y="190" />
              <mxPoint x="646" y="348" />
              <mxPoint x="651" y="348" />
            </Array>
          </mxGeometry>
        </mxCell>
        <mxCell id="r_BC0qLnN4V1Snk0VYc_-3" value="lijst2" style="ellipse;whiteSpace=wrap;html=1;aspect=fixed;fillColor=#d5e8d4;strokeColor=#82b366;" parent="1" vertex="1">
          <mxGeometry x="670" y="165" width="50" height="50" as="geometry" />
        </mxCell>
        <mxCell id="NdRPjQpu_pQKMl-yt1kw-28" style="edgeStyle=orthogonalEdgeStyle;rounded=0;orthogonalLoop=1;jettySize=auto;html=1;entryX=0.5;entryY=0;entryDx=0;entryDy=0;" edge="1" parent="1" source="NdRPjQpu_pQKMl-yt1kw-27" target="NdRPjQpu_pQKMl-yt1kw-32">
          <mxGeometry relative="1" as="geometry" />
        </mxCell>
        <mxCell id="NdRPjQpu_pQKMl-yt1kw-29" value="False" style="edgeLabel;html=1;align=center;verticalAlign=middle;resizable=0;points=[];" vertex="1" connectable="0" parent="NdRPjQpu_pQKMl-yt1kw-28">
          <mxGeometry x="-0.3584" y="1" relative="1" as="geometry">
            <mxPoint as="offset" />
          </mxGeometry>
        </mxCell>
        <mxCell id="NdRPjQpu_pQKMl-yt1kw-30" style="edgeStyle=orthogonalEdgeStyle;rounded=0;orthogonalLoop=1;jettySize=auto;html=1;entryX=1;entryY=0.25;entryDx=0;entryDy=0;" edge="1" parent="1" source="NdRPjQpu_pQKMl-yt1kw-27" target="FBNQT48soNXiwn7uXMfq-4">
          <mxGeometry relative="1" as="geometry">
            <Array as="points">
              <mxPoint x="740" y="415" />
              <mxPoint x="740" y="140" />
              <mxPoint x="470" y="140" />
              <mxPoint x="470" y="261" />
            </Array>
          </mxGeometry>
        </mxCell>
        <mxCell id="NdRPjQpu_pQKMl-yt1kw-31" value="True" style="edgeLabel;html=1;align=center;verticalAlign=middle;resizable=0;points=[];" vertex="1" connectable="0" parent="NdRPjQpu_pQKMl-yt1kw-30">
          <mxGeometry x="-0.9327" relative="1" as="geometry">
            <mxPoint as="offset" />
          </mxGeometry>
        </mxCell>
        <mxCell id="NdRPjQpu_pQKMl-yt1kw-27" value="aantal namen&lt;div&gt;&amp;lt; 3&lt;/div&gt;" style="rhombus;whiteSpace=wrap;html=1;fillColor=#f5f5f5;fontColor=#333333;strokeColor=#666666;" vertex="1" parent="1">
          <mxGeometry x="620" y="380" width="62.5" height="70" as="geometry" />
        </mxCell>
        <mxCell id="NdRPjQpu_pQKMl-yt1kw-34" style="edgeStyle=orthogonalEdgeStyle;rounded=0;orthogonalLoop=1;jettySize=auto;html=1;entryX=1;entryY=0;entryDx=0;entryDy=0;" edge="1" parent="1" source="NdRPjQpu_pQKMl-yt1kw-32" target="FBNQT48soNXiwn7uXMfq-4">
          <mxGeometry relative="1" as="geometry">
            <Array as="points">
              <mxPoint x="810" y="585" />
              <mxPoint x="810" y="90" />
              <mxPoint x="450" y="90" />
              <mxPoint x="450" y="250" />
            </Array>
          </mxGeometry>
        </mxCell>
        <mxCell id="NdRPjQpu_pQKMl-yt1kw-35" value="ja" style="edgeLabel;html=1;align=center;verticalAlign=middle;resizable=0;points=[];" vertex="1" connectable="0" parent="NdRPjQpu_pQKMl-yt1kw-34">
          <mxGeometry x="-0.9671" y="1" relative="1" as="geometry">
            <mxPoint as="offset" />
          </mxGeometry>
        </mxCell>
        <mxCell id="NdRPjQpu_pQKMl-yt1kw-36" style="edgeStyle=orthogonalEdgeStyle;rounded=0;orthogonalLoop=1;jettySize=auto;html=1;entryX=0.5;entryY=0;entryDx=0;entryDy=0;" edge="1" parent="1" source="NdRPjQpu_pQKMl-yt1kw-32" target="FBNQT48soNXiwn7uXMfq-43">
          <mxGeometry relative="1" as="geometry" />
        </mxCell>
        <mxCell id="NdRPjQpu_pQKMl-yt1kw-37" value="nee" style="edgeLabel;html=1;align=center;verticalAlign=middle;resizable=0;points=[];" vertex="1" connectable="0" parent="NdRPjQpu_pQKMl-yt1kw-36">
          <mxGeometry x="-0.1685" y="-1" relative="1" as="geometry">
            <mxPoint as="offset" />
          </mxGeometry>
        </mxCell>
        <mxCell id="NdRPjQpu_pQKMl-yt1kw-32" value="nog een naam" style="shape=parallelogram;perimeter=parallelogramPerimeter;whiteSpace=wrap;html=1;fixedSize=1;fillColor=#fff2cc;strokeColor=#d6b656;" vertex="1" parent="1">
          <mxGeometry x="601.25" y="565" width="100" height="40" as="geometry" />
        </mxCell>
        <mxCell id="NdRPjQpu_pQKMl-yt1kw-39" style="edgeStyle=orthogonalEdgeStyle;rounded=0;orthogonalLoop=1;jettySize=auto;html=1;entryX=0;entryY=0.5;entryDx=0;entryDy=0;" edge="1" parent="1" source="NdRPjQpu_pQKMl-yt1kw-38" target="FBNQT48soNXiwn7uXMfq-56">
          <mxGeometry relative="1" as="geometry">
            <mxPoint x="250" y="840" as="targetPoint" />
            <Array as="points">
              <mxPoint x="240" y="1065" />
              <mxPoint x="240" y="840" />
              <mxPoint x="342" y="840" />
            </Array>
          </mxGeometry>
        </mxCell>
        <mxCell id="NdRPjQpu_pQKMl-yt1kw-40" value="True" style="edgeLabel;html=1;align=center;verticalAlign=middle;resizable=0;points=[];" vertex="1" connectable="0" parent="NdRPjQpu_pQKMl-yt1kw-39">
          <mxGeometry x="-0.8356" y="-3" relative="1" as="geometry">
            <mxPoint as="offset" />
          </mxGeometry>
        </mxCell>
        <mxCell id="NdRPjQpu_pQKMl-yt1kw-41" style="edgeStyle=orthogonalEdgeStyle;rounded=0;orthogonalLoop=1;jettySize=auto;html=1;entryX=0.5;entryY=0;entryDx=0;entryDy=0;" edge="1" parent="1" source="NdRPjQpu_pQKMl-yt1kw-38" target="Gl5G8OVVk4Xc4y8MYBrU-5">
          <mxGeometry relative="1" as="geometry" />
        </mxCell>
        <mxCell id="NdRPjQpu_pQKMl-yt1kw-42" value="False" style="edgeLabel;html=1;align=center;verticalAlign=middle;resizable=0;points=[];" vertex="1" connectable="0" parent="NdRPjQpu_pQKMl-yt1kw-41">
          <mxGeometry x="-0.3156" y="-3" relative="1" as="geometry">
            <mxPoint as="offset" />
          </mxGeometry>
        </mxCell>
        <mxCell id="NdRPjQpu_pQKMl-yt1kw-38" value="trek == al getroken" style="rhombus;whiteSpace=wrap;html=1;fillColor=#f5f5f5;fontColor=#333333;strokeColor=#666666;" vertex="1" parent="1">
          <mxGeometry x="351" y="1030" width="62.5" height="70" as="geometry" />
        </mxCell>
      </root>
    </mxGraphModel>
  </diagram>
</mxfile>
